<svg aria-hidden="true" style="position: absolute; width: 0; height: 0; overflow: hidden;" version="1.1" xmlns="http://www.w3.org/2000/svg" xmlns:xlink="http://www.w3.org/1999/xlink">
<defs>
<symbol id="icon-close" viewBox="0 0 32 32">
<path d="M26.667 7.303l-1.97-1.97-7.808 7.808-7.808-7.808-1.97 1.97 7.808 7.808-7.808 7.808 1.97 1.97 7.808-7.808 7.808 7.808 1.97-1.97-7.808-7.808 7.808-7.808z"></path>
</symbol>
<symbol id="icon-person" viewBox="0 0 28 32">
<path d="M13.913 12.522c2.306 0 4.174-1.868 4.174-4.174s-1.868-4.174-4.174-4.174c-2.306 0-4.174 1.868-4.174 4.174s1.868 4.174 4.174 4.174zM13.913 14.609c-2.786 0-8.348 1.398-8.348 4.174v1.043c0 0.574 0.47 1.043 1.043 1.043h14.609c0.574 0 1.043-0.47 1.043-1.043v-1.043c0-2.776-5.562-4.174-8.348-4.174z"></path>
</symbol>
<symbol id="icon-email" viewBox="0 0 32 32">
<path d="M26.667 5.333h-21.333c-1.467 0-2.653 1.2-2.653 2.667l-0.013 16c0 1.467 1.2 2.667 2.667 2.667h21.333c1.467 0 2.667-1.2 2.667-2.667v-16c0-1.467-1.2-2.667-2.667-2.667zM26.133 11l-9.427 5.893c-0.427 0.267-0.987 0.267-1.413 0l-9.427-5.893c-0.333-0.213-0.533-0.573-0.533-0.96 0-0.893 0.973-1.427 1.733-0.96l8.933 5.587 8.933-5.587c0.76-0.467 1.733 0.067 1.733 0.96 0 0.387-0.2 0.747-0.533 0.96z"></path>
</symbol>
<symbol id="icon-phone" viewBox="0 0 32 32">
<path d="M22.149 13.689l-2.262-0.258c-0.543-0.062-1.078 0.125-1.461 0.508l-1.639 1.639c-2.521-1.283-4.587-3.34-5.87-5.87l1.648-1.648c0.383-0.383 0.57-0.917 0.508-1.461l-0.258-2.245c-0.107-0.9-0.864-1.577-1.772-1.577h-1.541c-1.006 0-1.844 0.837-1.781 1.844 0.472 7.606 6.555 13.681 14.153 14.153 1.006 0.062 1.844-0.775 1.844-1.781v-1.541c0.009-0.9-0.668-1.657-1.568-1.764z"></path>
<path fill="none" stroke="#000" style="stroke: var(--color1, #000)" stroke-linejoin="miter" stroke-linecap="butt" stroke-miterlimit="4" stroke-width="1.2308" d="M5.538 0.615h20.923v20.923h-20.923v-20.923z"></path>
</symbol>
</defs>
</svg>
